<svg width="37" height="36" viewBox="0 0 37 36" fill="none" xmlns="http://www.w3.org/2000/svg">
<rect x="0.116943" width="36" height="36" rx="18" fill="#F6D4E0"/>
<path d="M12.3353 24.745V16.0726C12.3353 14.5392 12.9444 13.0686 14.0287 11.9843C15.1129 10.9001 16.5835 10.291 18.1169 10.291C19.6503 10.291 21.1208 10.9001 22.2051 11.9843C23.2894 13.0686 23.8985 14.5392 23.8985 16.0726V24.745M12.3353 24.745H23.8985M12.3353 24.745H10.4081M23.8985 24.745H25.8257M17.1533 27.6358H19.0805" stroke="black" stroke-width="1.4454" stroke-linecap="round" stroke-linejoin="round"/>
<path d="M18.1169 10.2914C18.6491 10.2914 19.0805 9.86 19.0805 9.32782C19.0805 8.79563 18.6491 8.36422 18.1169 8.36422C17.5847 8.36422 17.1533 8.79563 17.1533 9.32782C17.1533 9.86 17.5847 10.2914 18.1169 10.2914Z" stroke="black" stroke-width="1.4454"/>
</svg>
