<svg width="44" height="45" viewBox="0 0 44 45" fill="none" xmlns="http://www.w3.org/2000/svg">
<rect y="0.294922" width="44" height="44" rx="8" fill="white"/>
<path fill-rule="evenodd" clip-rule="evenodd" d="M21.9799 26.7562C16.8226 26.7562 12.4199 27.5362 12.4199 30.6589C12.4199 33.7816 16.7946 34.5896 21.9799 34.5896C27.1359 34.5896 31.5399 33.8082 31.5399 30.6869C31.5399 27.5656 27.1639 26.7562 21.9799 26.7562V26.7562Z" stroke="#272343" stroke-width="1.5" stroke-linecap="round" stroke-linejoin="round"/>
<path fill-rule="evenodd" clip-rule="evenodd" d="M21.9798 22.3029C23.1918 22.3029 24.3766 21.9435 25.3844 21.2702C26.3921 20.5968 27.1776 19.6397 27.6414 18.52C28.1052 17.4002 28.2265 16.1681 27.9901 14.9794C27.7536 13.7907 27.17 12.6988 26.313 11.8418C25.456 10.9847 24.3641 10.4011 23.1754 10.1647C21.9866 9.92821 20.7545 10.0496 19.6348 10.5134C18.515 10.9772 17.558 11.7626 16.8846 12.7704C16.2112 13.7781 15.8518 14.9629 15.8518 16.1749C15.8462 17.7943 16.4839 19.3496 17.6249 20.4988C18.7658 21.6479 20.3165 22.2969 21.9358 22.3029H21.9798Z" stroke="#272343" stroke-width="1.429" stroke-linecap="round" stroke-linejoin="round"/>
</svg>
