<svg width="20" height="20" viewBox="0 0 20 20" fill="none" xmlns="http://www.w3.org/2000/svg">
<path d="M18.5069 18.6718L12.7253 12.8902M1.16211 8.07217C1.16211 8.95796 1.33658 9.83508 1.67556 10.6534C2.01454 11.4718 2.51139 12.2154 3.13774 12.8418C3.76409 13.4681 4.50767 13.965 5.32604 14.3039C6.14441 14.6429 7.02153 14.8174 7.90732 14.8174C8.79311 14.8174 9.67023 14.6429 10.4886 14.3039C11.307 13.965 12.0506 13.4681 12.6769 12.8418C13.3033 12.2154 13.8001 11.4718 14.1391 10.6534C14.4781 9.83508 14.6525 8.95796 14.6525 8.07217C14.6525 7.18637 14.4781 6.30925 14.1391 5.49089C13.8001 4.67252 13.3033 3.92893 12.6769 3.30258C12.0506 2.67623 11.307 2.17938 10.4886 1.8404C9.67023 1.50143 8.79311 1.32696 7.90732 1.32696C7.02153 1.32696 6.14441 1.50143 5.32604 1.8404C4.50767 2.17938 3.76409 2.67623 3.13774 3.30258C2.51139 3.92893 2.01454 4.67252 1.67556 5.49089C1.33658 6.30925 1.16211 7.18637 1.16211 8.07217Z" stroke="#FF0044" stroke-width="1.9272" stroke-linecap="round" stroke-linejoin="round"/>
</svg>
