<svg width="17" height="15" viewBox="0 0 17 15" fill="none" xmlns="http://www.w3.org/2000/svg">
<path d="M0.850586 0.768555H1.35585C2.20637 0.768555 2.92045 1.40897 3.01269 2.25448L3.68849 8.4493C3.78072 9.2948 4.4948 9.93522 5.34532 9.93522H12.5556C13.3175 9.93522 13.9823 9.41863 14.1706 8.6804L15.3205 4.17114C15.5893 3.11734 14.7931 2.09263 13.7055 2.09263H3.85059M3.87122 12.956H4.49622M3.87122 13.581H4.49622M13.0379 12.956H13.6629M13.0379 13.581H13.6629M5.01725 13.2686C5.01725 13.7288 4.64416 14.1019 4.18392 14.1019C3.72368 14.1019 3.35059 13.7288 3.35059 13.2686C3.35059 12.8083 3.72368 12.4352 4.18392 12.4352C4.64416 12.4352 5.01725 12.8083 5.01725 13.2686ZM14.1839 13.2686C14.1839 13.7288 13.8108 14.1019 13.3506 14.1019C12.8903 14.1019 12.5173 13.7288 12.5173 13.2686C12.5173 12.8083 12.8903 12.4352 13.3506 12.4352C13.8108 12.4352 14.1839 12.8083 14.1839 13.2686Z" stroke="white" stroke-width="1.5" stroke-linecap="round"/>
</svg>
