<svg width="48" height="48" viewBox="0 0 48 48" fill="none" xmlns="http://www.w3.org/2000/svg">
<rect x="0.987061" y="0.456055" width="47" height="47" rx="20" fill="white" fill-opacity="0.5"/>
<path d="M19.7902 34.0811H16.6121V21.0311L14.5589 16.0811H12.1121V13.8311H16.0777L17.9339 18.3311H36.3839L32.3621 26.2342C33.3183 26.3842 34.1201 26.8248 34.7673 27.5561C35.4138 28.2873 35.7371 29.1498 35.7371 30.1436C35.7371 31.2311 35.3576 32.1592 34.5986 32.9279C33.8388 33.6967 32.9152 34.0811 31.8277 34.0811C30.7214 34.0811 29.7888 33.6967 29.0298 32.9279C28.2701 32.1592 27.8902 31.2311 27.8902 30.1436C27.8902 29.7686 27.9371 29.4217 28.0308 29.1029C28.1246 28.7842 28.2558 28.4748 28.4246 28.1748L24.7402 27.8373L19.7902 34.0811ZM29.9433 26.0654L32.7277 20.5811L18.8621 20.6092L20.8027 25.2217L29.9433 26.0654ZM18.8621 25.8686V31.8029L22.2089 27.6123L19.4808 27.3592L18.8621 25.8686ZM31.7996 31.8311C32.2871 31.8311 32.6902 31.6668 33.0089 31.3383C33.3277 31.0106 33.4871 30.6123 33.4871 30.1436C33.4871 29.6561 33.3277 29.2529 33.0089 28.9342C32.6902 28.6154 32.2871 28.4561 31.7996 28.4561C31.3308 28.4561 30.9326 28.6154 30.6048 28.9342C30.2763 29.2529 30.1121 29.6561 30.1121 30.1436C30.1121 30.6123 30.2763 31.0106 30.6048 31.3383C30.9326 31.6668 31.3308 31.8311 31.7996 31.8311ZM29.9433 26.0654L20.8027 25.2217L29.9433 26.0654Z" fill="#454545"/>
</svg>
