<svg width="28" height="28" viewBox="0 0 28 28" fill="none" xmlns="http://www.w3.org/2000/svg">
<path d="M18.4246 16.2061H17.5358L17.2208 15.9023C18.3614 14.5793 18.9883 12.8903 18.9871 11.1436C18.9871 9.69728 18.5582 8.28349 17.7547 7.08095C16.9512 5.87842 15.8091 4.94115 14.4729 4.38769C13.1368 3.83422 11.6665 3.68941 10.248 3.97157C8.82948 4.25372 7.52652 4.95017 6.50385 5.97284C5.48117 6.99551 4.78473 8.29847 4.50257 9.71696C4.22042 11.1354 4.36523 12.6057 4.91869 13.9419C5.47216 15.2781 6.40942 16.4202 7.61196 17.2237C8.81449 18.0272 10.2283 18.4561 11.6746 18.4561C13.4858 18.4561 15.1508 17.7923 16.4333 16.6898L16.7371 17.0048V17.8936L22.3621 23.5073L24.0383 21.8311L18.4246 16.2061ZM11.6746 16.2061C8.87331 16.2061 6.61206 13.9448 6.61206 11.1436C6.61206 8.34231 8.87331 6.08106 11.6746 6.08106C14.4758 6.08106 16.7371 8.34231 16.7371 11.1436C16.7371 13.9448 14.4758 16.2061 11.6746 16.2061Z" fill="#454545"/>
</svg>
