<svg width="34" height="34" viewBox="0 0 34 34" fill="none" xmlns="http://www.w3.org/2000/svg">
<circle cx="17.1288" cy="17.0937" r="16.1796" fill="white"/>
<path fill-rule="evenodd" clip-rule="evenodd" d="M16.7198 12.8947C15.345 11.2925 13.0523 10.8615 11.3298 12.3286C9.60723 13.7958 9.36472 16.2487 10.7174 17.9839C11.8422 19.4266 15.2459 22.4694 16.3615 23.4542C16.4863 23.5644 16.5487 23.6195 16.6215 23.6411C16.685 23.66 16.7545 23.66 16.8181 23.6411C16.8909 23.6195 16.9533 23.5644 17.0781 23.4542C18.1936 22.4694 21.5974 19.4266 22.7221 17.9839C24.0748 16.2487 23.8619 13.7803 22.1098 12.3286C20.3576 10.8769 18.0946 11.2925 16.7198 12.8947Z" stroke="#3C4242" stroke-width="1.26066" stroke-linecap="round" stroke-linejoin="round"/>
</svg>
