<svg width="48" height="48" viewBox="0 0 48 48" fill="none" xmlns="http://www.w3.org/2000/svg">
<rect x="0.987061" y="0.456055" width="47" height="47" rx="20" fill="white" fill-opacity="0.5"/>
<path d="M28.4246 26.2061H27.5358L27.2208 25.9023C28.3614 24.5793 28.9883 22.8903 28.9871 21.1436C28.9871 19.6973 28.5582 18.2835 27.7547 17.081C26.9512 15.8784 25.8091 14.9412 24.4729 14.3877C23.1368 13.8342 21.6665 13.6894 20.248 13.9716C18.8295 14.2537 17.5265 14.9502 16.5038 15.9728C15.4812 16.9955 14.7847 18.2985 14.5026 19.717C14.2204 21.1354 14.3652 22.6057 14.9187 23.9419C15.4722 25.2781 16.4094 26.4202 17.612 27.2237C18.8145 28.0272 20.2283 28.4561 21.6746 28.4561C23.4858 28.4561 25.1508 27.7923 26.4333 26.6898L26.7371 27.0048V27.8936L32.3621 33.5073L34.0383 31.8311L28.4246 26.2061ZM21.6746 26.2061C18.8733 26.2061 16.6121 23.9448 16.6121 21.1436C16.6121 18.3423 18.8733 16.0811 21.6746 16.0811C24.4758 16.0811 26.7371 18.3423 26.7371 21.1436C26.7371 23.9448 24.4758 26.2061 21.6746 26.2061Z" fill="#454545"/>
</svg>
