<svg width="91" height="90" viewBox="0 0 91 90" fill="none" xmlns="http://www.w3.org/2000/svg">
<rect x="3.05176e-05" width="91" height="90" rx="20" fill="#FFF3E8"/>
<path opacity="0.3" d="M52.1563 43.625L57.3313 34.25H34.55L38.9938 43.625H52.1563Z" fill="#C68C57"/>
<path d="M52.1563 47.375C53.5625 47.375 54.8 46.6063 55.4375 45.4438L62.15 33.275C62.308 32.9908 62.3891 32.6703 62.3852 32.3451C62.3813 32.0199 62.2926 31.7014 62.1278 31.4211C61.963 31.1408 61.7279 30.9083 61.4457 30.7468C61.1635 30.5852 60.844 30.5002 60.5188 30.5H32.7688L31.0063 26.75H24.875V30.5H28.625L35.375 44.7313L32.8438 49.3062C31.475 51.8188 33.275 54.875 36.125 54.875H58.625V51.125H36.125L38.1875 47.375H52.1563ZM34.55 34.25H57.3313L52.1563 43.625H38.9938L34.55 34.25ZM36.125 56.75C34.0625 56.75 32.3938 58.4375 32.3938 60.5C32.3938 62.5625 34.0625 64.25 36.125 64.25C38.1875 64.25 39.875 62.5625 39.875 60.5C39.875 58.4375 38.1875 56.75 36.125 56.75ZM54.875 56.75C52.8125 56.75 51.1438 58.4375 51.1438 60.5C51.1438 62.5625 52.8125 64.25 54.875 64.25C56.9375 64.25 58.625 62.5625 58.625 60.5C58.625 58.4375 56.9375 56.75 54.875 56.75Z" fill="#C68C57"/>
</svg>
