<svg width="64" height="65" viewBox="0 0 64 65" fill="none" xmlns="http://www.w3.org/2000/svg">
<g clip-path="url(#clip0_27_1774)">
<path d="M5.94536 14.2456L12.118 8.073L24.4632 20.4182L18.2906 26.5908L8.97748 17.3861L18.1822 26.5908C15.1501 29.623 15.1501 35.7956 22.0807 42.7263C29.0113 49.6571 35.1839 49.6569 38.3244 46.6248L50.6696 58.97C45.255 64.3846 39.8405 65.1426 34.4259 62.8685C34.4259 62.8685 26.7372 59.8364 15.9081 49.0072C5.07899 38.1779 2.04687 30.4893 2.04687 30.4893C-0.98525 24.3167 0.530873 19.6602 5.94536 14.2456ZM38.3246 46.6248L50.6698 58.97L56.8424 52.7974L44.4972 40.4522L38.3246 46.6248Z" fill="#F24C88"/>
<path d="M40.0566 64.9262C38.2156 64.9262 36.2664 64.4931 34.3171 63.6267C33.9923 63.5184 26.4119 60.3779 15.5827 49.6571C4.86194 38.9362 1.72144 31.2476 1.61319 30.9228C-1.41893 24.8584 -0.227806 19.9853 5.61993 14.1375L11.7925 7.96492C12.0092 7.7483 12.334 7.7483 12.5505 7.96492L24.8958 20.3101C25.1124 20.5268 25.1124 20.8516 24.8958 21.0681L21.8637 24.1003C21.647 24.3169 21.3222 24.3169 21.1057 24.1003C20.8892 23.8836 20.889 23.5588 21.1057 23.3423L23.8129 20.635L12.2258 9.04779L6.48631 14.7873C0.963443 20.3101 -0.11943 24.6418 2.69606 30.3813C2.69606 30.4895 5.94481 38.1782 16.449 48.7908C27.0616 59.4035 34.7503 62.5438 34.7503 62.5438C40.1649 64.9262 45.1462 63.7351 50.0193 59.1868L41.1395 50.307C40.9229 50.0903 40.9229 49.7655 41.1395 49.549C41.3561 49.3323 41.681 49.3323 41.8975 49.549L51.1022 58.7537C51.3188 58.9703 51.3188 59.2952 51.1022 59.5117C47.6371 63.1936 43.9551 64.9262 40.0566 64.9262ZM53.8097 56.6961C53.7015 56.6961 53.4848 56.6961 53.3766 56.5878C53.16 56.3712 53.16 56.0463 53.3766 55.8298L55.9756 53.1226L44.3884 41.5354L38.6489 47.2748C35.4001 50.5236 28.9026 50.6318 21.6472 43.3764C14.7165 36.4457 14.4999 30.1648 17.4238 26.8078L8.54393 17.9279C8.3273 17.7113 8.3273 17.3864 8.54393 17.1699C8.76055 16.9534 9.08543 16.9533 9.30193 17.1699L18.5067 26.3746C18.7233 26.5913 18.7233 26.9161 18.5067 27.1326C15.5828 30.0565 15.691 35.9042 22.4052 42.51C29.0109 49.2241 34.967 49.2241 37.7825 46.4085L43.9551 40.2359C44.1717 40.0192 44.4966 40.0192 44.7131 40.2359L57.0583 52.5811C57.275 52.7977 57.275 53.1226 57.0583 53.3391L54.0262 56.3712C54.1346 56.6961 53.918 56.6961 53.8097 56.6961ZM63.3393 30.273C63.0145 30.273 62.7978 30.0564 62.7978 29.7315C63.0145 22.2594 60.1988 15.0039 55.0008 9.91417C49.8028 4.82443 42.6556 1.90056 35.1835 2.11718C34.8586 2.11718 34.642 1.90056 34.642 1.57568C34.642 1.25081 34.8586 1.03418 35.1835 1.03418C42.9805 0.817558 50.4526 3.74143 55.8672 9.15604C61.1735 14.4623 64.2057 22.0428 63.9891 29.8398C63.8808 30.0564 63.6642 30.273 63.3393 30.273ZM56.8418 30.273C56.517 30.273 56.3003 30.0564 56.3003 29.7315C56.517 23.992 54.3511 18.3609 50.4526 14.4624C46.6624 10.6722 41.0312 8.50642 35.1835 8.61467C34.8586 8.61467 34.642 8.39804 34.642 8.07317C34.642 7.7483 34.8586 7.53167 35.1835 7.53167C41.3561 7.42342 47.2039 9.69754 51.2106 13.7043C55.3257 17.8194 57.5998 23.6671 57.3832 29.7314C57.3833 30.0564 57.1667 30.273 56.8418 30.273ZM50.3443 30.273C50.0195 30.273 49.8029 30.0564 49.8029 29.7315C49.8029 27.2408 49.2613 22.476 45.7961 19.1189C42.3307 15.6535 37.6742 15.1122 35.1835 15.1122C34.8586 15.1122 34.642 14.8955 34.642 14.5707C34.642 14.2458 34.8586 14.0292 35.1835 14.0292C37.8907 14.0292 42.8722 14.5707 46.6624 18.2525C50.3442 21.9344 50.8857 27.0241 50.8857 29.7314C50.8858 30.0564 50.6692 30.273 50.3443 30.273Z" fill="#333D4C"/>
</g>
<defs>
<clipPath id="clip0_27_1774">
<rect width="64" height="64" fill="white" transform="translate(0 0.974609)"/>
</clipPath>
</defs>
</svg>
