<svg width="64" height="65" viewBox="0 0 64 65" fill="none" xmlns="http://www.w3.org/2000/svg">
<g clip-path="url(#clip0_27_1783)">
<path d="M54.7711 30.8011L39.912 42.1901L35.247 45.7747C35.247 45.7747 33.62 47.1856 31.993 47.1856C30.366 47.1856 28.739 45.7747 28.739 45.7747L23.9723 42.1901L9.21484 30.8011V15.6241V5.86205C9.21484 3.58677 11.1723 1.52759 13.5493 1.52759H50.424C52.6993 1.52759 54.7584 3.48509 54.7584 5.86205V15.6241V30.8011H54.7711Z" fill="#FFF4EA"/>
<path d="M60.1989 18.878L54.7713 15.624V30.8137L40.0138 42.0884L35.3488 45.6729C35.3488 45.6729 33.7218 47.0838 32.0948 47.0838C30.4678 47.0838 28.8408 45.6729 28.8408 45.6729L25.0783 42.851L23.9597 41.9867L9.21496 30.801V15.624L3.90175 18.878C1.95696 19.9585 0.876526 22.1066 0.647728 24.3692L0.431641 24.2929C0.431641 24.6234 0.431641 24.9412 0.431641 25.2717V59.9855C0.431641 60.4177 0.54604 60.8498 0.647728 61.282C1.1943 63.1251 2.923 64.4216 4.8805 64.4216H59.1184C61.1776 64.4216 62.919 63.0107 63.3512 61.1676C63.4656 60.8371 63.4656 60.405 63.4656 60.0872V25.3861C63.4656 25.0556 63.4656 24.8395 63.4656 24.5217C63.2368 22.1321 62.1437 20.0729 60.1989 18.878Z" fill="#D4306B"/>
<path d="M9.21567 15.624V30.8137L0.750126 24.4073H0.648438C0.864525 22.1321 1.94496 19.9585 3.90246 18.878L9.21567 15.624ZM63.4536 24.509H63.1231L54.772 30.801V15.624L60.1996 18.878C62.1444 20.0729 63.2375 22.1321 63.4536 24.509Z" fill="#F24C88"/>
<path d="M59.1063 64.9683H4.88103C2.17359 64.9683 0 62.7947 0 60.0872V25.3861C0 22.4626 1.41092 19.6407 3.47011 18.4459L4.55055 17.6832C4.76663 17.4672 5.09712 17.5688 5.31321 17.7976C5.52929 18.0264 5.42761 18.3442 5.19881 18.5603L4.11837 19.323C2.05919 20.5178 1.08044 23.2252 1.08044 25.3988V60.1126C1.08044 62.2862 2.70745 63.9132 4.88103 63.9132H59.119C61.2926 63.9132 62.9196 62.2862 62.9196 60.1126V25.3861C62.9196 22.6787 61.8391 20.5051 59.8816 19.3103L58.8012 18.5476C58.5851 18.3315 58.4707 18.001 58.6868 17.7849C58.9029 17.5688 59.2334 17.4544 59.4495 17.6705L60.5299 18.4332C62.7035 19.8441 64 22.3355 64 25.3734V60.0872C63.9873 62.8074 61.8264 64.9683 59.1063 64.9683ZM59.1063 58.4602C58.9919 58.4602 58.8902 58.4602 58.7758 58.3458L43.5861 46.4102C43.37 46.1941 43.2556 45.8636 43.4717 45.6475C43.6878 45.4314 44.0183 45.317 44.2344 45.5331L59.424 57.4687C59.6401 57.6848 59.7545 58.0153 59.5384 58.2314C59.4367 58.3585 59.2207 58.4602 59.1063 58.4602ZM4.88103 58.4602C4.76663 58.4602 4.55055 58.3458 4.44886 58.2441C4.23277 58.028 4.33446 57.6975 4.56326 57.4815L19.7402 45.5585C19.9563 45.3424 20.2868 45.4441 20.5029 45.6729C20.719 45.889 20.6173 46.2195 20.3885 46.4356L5.19881 58.3585C5.09712 58.4602 4.98272 58.4602 4.88103 58.4602ZM31.9936 47.6177C30.2522 47.6177 28.4091 46.1051 28.4091 46.1051L4.66495 27.9792C4.44886 27.7631 4.33446 27.4326 4.55055 27.2165C4.76663 27.0004 5.09712 26.886 5.31321 27.1021L8.78332 29.7079V5.86199C8.78332 3.25623 11.0586 0.980957 13.6643 0.980957H50.539C53.1448 0.980957 55.4201 3.25623 55.4201 5.86199V29.7206L58.8902 27.1148C59.1063 26.8987 59.4367 27.0004 59.6528 27.2292C59.8689 27.458 59.7672 27.7758 59.5384 27.9919L35.6798 46.1051C35.4638 46.2068 33.7351 47.6177 31.9936 47.6177ZM9.76207 30.5849L29.0701 45.228C29.0701 45.228 30.5827 46.5246 31.9936 46.5246C33.4046 46.5246 34.9172 45.3297 34.9172 45.3297L54.2252 30.5722V5.86199C54.2252 3.8028 52.4838 2.06139 50.4246 2.06139H13.5499C11.4908 2.06139 9.74935 3.8028 9.74935 5.86199V30.5849H9.76207ZM37.4212 38.9361H26.5787C26.2483 38.9361 26.0322 38.72 26.0322 38.3895C26.0322 38.059 26.2483 37.8429 26.5787 37.8429H37.4212C37.7517 37.8429 37.9678 38.059 37.9678 38.3895C37.9551 38.72 37.739 38.9361 37.4212 38.9361ZM43.9293 32.428H39.5948C39.2644 32.428 39.0483 32.2119 39.0483 31.8815C39.0483 31.551 39.2644 31.3349 39.5948 31.3349H43.9293C44.2598 31.3349 44.4759 31.551 44.4759 31.8815C44.4759 32.2119 44.2471 32.428 43.9293 32.428ZM35.2477 32.428H20.058C19.7275 32.428 19.5114 32.2119 19.5114 31.8815C19.5114 31.551 19.7275 31.3349 20.058 31.3349H35.2477C35.5782 31.3349 35.7942 31.551 35.7942 31.8815C35.7942 32.2119 35.5782 32.428 35.2477 32.428ZM43.9293 25.92H30.9132C30.5827 25.92 30.3666 25.7039 30.3666 25.3734C30.3666 25.0429 30.5827 24.8268 30.9132 24.8268H43.9293C44.2598 24.8268 44.4759 25.0429 44.4759 25.3734C44.4632 25.7039 44.2471 25.92 43.9293 25.92ZM26.566 25.92H20.058C19.7275 25.92 19.5114 25.7039 19.5114 25.3734C19.5114 25.0429 19.7275 24.8268 20.058 24.8268H26.566C26.8965 24.8268 27.1126 25.0429 27.1126 25.3734C27.1126 25.7039 26.8965 25.92 26.566 25.92ZM33.0741 17.2511H20.058C19.7275 17.2511 19.5114 17.035 19.5114 16.7045C19.5114 16.374 19.7275 16.1579 20.058 16.1579H33.0741C33.4046 16.1579 33.6207 16.374 33.6207 16.7045C33.6207 17.035 33.4046 17.2511 33.0741 17.2511Z" fill="#333D4C"/>
</g>
<defs>
<clipPath id="clip0_27_1783">
<rect width="64" height="64" fill="white" transform="translate(0 0.974609)"/>
</clipPath>
</defs>
</svg>
