<svg width="45" height="45" viewBox="0 0 45 45" fill="none" xmlns="http://www.w3.org/2000/svg">
<circle cx="22.3506" cy="22.9355" r="22" fill="#F6F6F6"/>
<path d="M15.3506 19.6855H30.3506M18.3506 27.1855H21.3506M24.3506 27.1855H27.3506M17.7506 30.9355H27.9506C28.7907 30.9355 29.2107 30.9355 29.5316 30.7312C29.8138 30.5514 30.0433 30.2646 30.1871 29.9118C30.3506 29.5107 30.3506 28.9856 30.3506 27.9355V18.9355C30.3506 17.8854 30.3506 17.3604 30.1871 16.9593C30.0433 16.6065 29.8138 16.3197 29.5316 16.1399C29.2107 15.9355 28.7907 15.9355 27.9506 15.9355H17.7506C16.9105 15.9355 16.4905 15.9355 16.1696 16.1399C15.8874 16.3197 15.6579 16.6065 15.5141 16.9593C15.3506 17.3604 15.3506 17.8854 15.3506 18.9355V27.9355C15.3506 28.9856 15.3506 29.5107 15.5141 29.9118C15.6579 30.2646 15.8874 30.5514 16.1696 30.7312C16.4905 30.9355 16.9105 30.9355 17.7506 30.9355Z" stroke="#3C4242" stroke-width="1.1" stroke-linecap="round"/>
</svg>
