<svg width="17" height="17" viewBox="0 0 17 17" fill="none" xmlns="http://www.w3.org/2000/svg">
<path d="M1.35059 4.68555H16.3506M4.35059 12.1855H7.35059M10.3506 12.1855H13.3506M3.75059 15.9355H13.9506C14.7907 15.9355 15.2107 15.9355 15.5316 15.7312C15.8138 15.5514 16.0433 15.2646 16.1871 14.9118C16.3506 14.5107 16.3506 13.9856 16.3506 12.9355V3.93555C16.3506 2.88545 16.3506 2.3604 16.1871 1.95931C16.0433 1.60651 15.8138 1.31967 15.5316 1.13991C15.2107 0.935547 14.7907 0.935547 13.9506 0.935547H3.75059C2.91051 0.935547 2.49047 0.935547 2.1696 1.13991C1.88736 1.31967 1.65789 1.60651 1.51408 1.95931C1.35059 2.3604 1.35059 2.88545 1.35059 3.93555V12.9355C1.35059 13.9856 1.35059 14.5107 1.51408 14.9118C1.65789 15.2646 1.88736 15.5514 2.1696 15.7312C2.49047 15.9355 2.91051 15.9355 3.75059 15.9355Z" stroke="#3C4242" stroke-width="1.1" stroke-linecap="round"/>
</svg>
