<svg width="20" height="16" viewBox="0 0 20 16" fill="none" xmlns="http://www.w3.org/2000/svg">
<path d="M12.1506 12.6022V1.40221C12.1506 1.14448 11.9491 0.935547 11.7006 0.935547H1.80059C1.55206 0.935547 1.35059 1.14448 1.35059 1.40221V12.6022C1.35059 12.8599 1.55206 13.0689 1.80059 13.0689H3.15059M12.1506 12.6022C12.1506 12.8599 11.9491 13.0689 11.7006 13.0689H6.75059M12.1506 12.6022V4.20221C12.1506 3.94448 12.3521 3.73555 12.6006 3.73555H15.5642C15.6835 3.73555 15.798 3.78471 15.8824 3.87223L19.2188 7.3322C19.3032 7.41971 19.3506 7.53841 19.3506 7.66218V12.6022C19.3506 12.8599 19.1491 13.0689 18.9006 13.0689H17.5506M12.1506 12.6022C12.1506 12.8599 12.3521 13.0689 12.6006 13.0689H13.9506M3.15059 13.0689C3.15059 14.0998 3.95647 14.9355 4.95059 14.9355C5.9447 14.9355 6.75059 14.0998 6.75059 13.0689M3.15059 13.0689C3.15059 12.0379 3.95647 11.2022 4.95059 11.2022C5.9447 11.2022 6.75059 12.0379 6.75059 13.0689M13.9506 13.0689C13.9506 14.0998 14.7565 14.9355 15.7506 14.9355C16.7447 14.9355 17.5506 14.0998 17.5506 13.0689M13.9506 13.0689C13.9506 12.0379 14.7565 11.2022 15.7506 11.2022C16.7447 11.2022 17.5506 12.0379 17.5506 13.0689" stroke="#3C4242" stroke-width="1.1"/>
</svg>
