<svg width="23" height="20" viewBox="0 0 23 20" fill="none" xmlns="http://www.w3.org/2000/svg">
<path d="M7.35059 5.34082C6.93637 5.34082 6.60059 5.67661 6.60059 6.09082C6.60059 6.50503 6.93637 6.84082 7.35059 6.84082V5.34082ZM15.3506 6.84082C15.7648 6.84082 16.1006 6.50503 16.1006 6.09082C16.1006 5.67661 15.7648 5.34082 15.3506 5.34082V6.84082ZM7.35059 9.34082C6.93637 9.34082 6.60059 9.67661 6.60059 10.0908C6.60059 10.505 6.93637 10.8408 7.35059 10.8408V9.34082ZM11.3506 10.8408C11.7648 10.8408 12.1006 10.505 12.1006 10.0908C12.1006 9.67661 11.7648 9.34082 11.3506 9.34082V10.8408ZM21.1326 13.9988L21.8009 14.3393V14.3393L21.1326 13.9988ZM20.2586 14.8728L20.5991 15.5411L20.2586 14.8728ZM20.2586 1.30881L20.5991 0.640553L20.5991 0.640552L20.2586 1.30881ZM21.1326 2.18284L21.8009 1.84235V1.84235L21.1326 2.18284ZM2.44261 1.30881L2.7831 1.97706L2.7831 1.97706L2.44261 1.30881ZM1.56857 2.18284L2.23683 2.52333L2.23683 2.52333L1.56857 2.18284ZM2.55793 18.4769L2.99062 19.0895L2.9907 19.0895L2.55793 18.4769ZM6.52048 15.6773L6.08771 15.0648H6.08771L6.52048 15.6773ZM1.44086 18.5684L2.05545 18.1385H2.05545L1.44086 18.5684ZM2.45393 18.5391L2.11888 17.8681L2.11887 17.8681L2.45393 18.5391ZM1.77751 18.7764L1.66789 19.5184H1.66789L1.77751 18.7764ZM2.52042 18.5028L2.11605 17.8711L2.11595 17.8712L2.52042 18.5028ZM2.49434 18.5184L2.12908 17.8633L2.12903 17.8634L2.49434 18.5184ZM7.61887 15.1248L7.75647 15.862L7.75648 15.862L7.61887 15.1248ZM7.15107 15.2734L7.4641 15.9549L7.4641 15.9549L7.15107 15.2734ZM7.35059 6.84082H15.3506V5.34082H7.35059V6.84082ZM7.35059 10.8408H11.3506V9.34082H7.35059V10.8408ZM4.55059 1.84082H18.1506V0.34082H4.55059V1.84082ZM20.6006 4.29082V11.8908H22.1006V4.29082H20.6006ZM20.6006 11.8908C20.6006 12.4632 20.6 12.8475 20.5758 13.1433C20.5524 13.4305 20.5105 13.5677 20.4643 13.6583L21.8009 14.3393C21.9727 14.002 22.0398 13.6454 22.0708 13.2655C22.1012 12.8944 22.1006 12.4385 22.1006 11.8908H20.6006ZM18.1506 15.8408C18.6983 15.8408 19.1541 15.8414 19.5253 15.8111C19.9051 15.78 20.2618 15.7129 20.5991 15.5411L19.9181 14.2046C19.8275 14.2507 19.6902 14.2926 19.4031 14.3161C19.1072 14.3402 18.723 14.3408 18.1506 14.3408V15.8408ZM20.4643 13.6583C20.3445 13.8935 20.1533 14.0847 19.9181 14.2046L20.5991 15.5411C21.1165 15.2774 21.5372 14.8567 21.8009 14.3393L20.4643 13.6583ZM18.1506 1.84082C18.723 1.84082 19.1072 1.8414 19.4031 1.86558C19.6902 1.88904 19.8275 1.93092 19.9181 1.97706L20.5991 0.640552C20.2618 0.468709 19.9051 0.401597 19.5253 0.37056C19.1541 0.340237 18.6983 0.34082 18.1506 0.34082V1.84082ZM22.1006 4.29082C22.1006 3.74314 22.1012 3.28728 22.0708 2.91615C22.0398 2.53627 21.9727 2.17961 21.8009 1.84235L20.4643 2.52333C20.5105 2.61389 20.5524 2.75117 20.5758 3.0383C20.6 3.33418 20.6006 3.71839 20.6006 4.29082H22.1006ZM19.9181 1.97706C20.1533 2.0969 20.3445 2.28813 20.4643 2.52333L21.8009 1.84235C21.5372 1.3249 21.1165 0.904205 20.5991 0.640553L19.9181 1.97706ZM4.55059 0.34082C4.00291 0.34082 3.54705 0.340237 3.17592 0.37056C2.79603 0.401597 2.43937 0.468709 2.10211 0.640553L2.7831 1.97706C2.87366 1.93092 3.01094 1.88904 3.29806 1.86558C3.59394 1.8414 3.97816 1.84082 4.55059 1.84082V0.34082ZM2.10059 4.29082C2.10059 3.71839 2.10117 3.33418 2.12534 3.0383C2.1488 2.75117 2.19068 2.61389 2.23683 2.52333L0.900318 1.84235C0.728474 2.17961 0.661363 2.53627 0.630325 2.91615C0.600003 3.28728 0.600586 3.74314 0.600586 4.29082H2.10059ZM2.10211 0.640552C1.58467 0.904204 1.16397 1.3249 0.900318 1.84235L2.23683 2.52333C2.35667 2.28813 2.5479 2.0969 2.7831 1.97706L2.10211 0.640552ZM18.1506 14.3408H8.36697V15.8408H18.1506V14.3408ZM2.9907 19.0895L6.95325 16.2898L6.08771 15.0648L2.12515 17.8644L2.9907 19.0895ZM0.600586 17.7964C0.600586 17.9961 0.599838 18.1975 0.614992 18.3631C0.630046 18.5276 0.667972 18.7719 0.826266 18.9982L2.05545 18.1385C2.12347 18.2358 2.11626 18.3084 2.10875 18.2264C2.10557 18.1917 2.10317 18.1418 2.10189 18.0668C2.10061 17.9922 2.10059 17.9054 2.10059 17.7964H0.600586ZM2.11887 17.8681C2.03176 17.9116 1.96233 17.946 1.90289 17.974C1.84302 18.0022 1.80348 18.0191 1.77656 18.0292C1.71352 18.053 1.77433 18.0178 1.88712 18.0345L1.66789 19.5184C1.92894 19.5569 2.15424 19.4899 2.3055 19.4329C2.45599 19.3762 2.6249 19.2921 2.78899 19.2101L2.11887 17.8681ZM0.826265 18.9982C1.02333 19.28 1.32775 19.4681 1.66789 19.5184L1.88712 18.0345C1.95515 18.0445 2.01604 18.0822 2.05545 18.1385L0.826265 18.9982ZM2.10059 17.7964V4.29082H0.600586V17.7964H2.10059ZM2.12524 17.8643C2.12042 17.8677 2.11695 17.8702 2.11397 17.8723C2.11102 17.8743 2.10945 17.8754 2.10863 17.876C2.10731 17.8769 2.11061 17.8746 2.11605 17.8711L2.92478 19.1344C2.95206 19.117 2.97747 19.0988 2.99062 19.0895L2.12524 17.8643ZM2.78898 19.2101C2.80365 19.2028 2.83138 19.1892 2.85965 19.1734L2.12903 17.8634C2.13454 17.8603 2.1381 17.8585 2.13682 17.8591C2.13597 17.8596 2.1343 17.8604 2.13112 17.862C2.1279 17.8636 2.12413 17.8655 2.11888 17.8681L2.78898 19.2101ZM2.11595 17.8712C2.12029 17.8684 2.12462 17.8658 2.12908 17.8633L2.8596 19.1734C2.8817 19.1611 2.90354 19.148 2.92489 19.1344L2.11595 17.8712ZM8.36697 14.3408C8.01663 14.3408 7.74709 14.3379 7.48125 14.3875L7.75648 15.862C7.85446 15.8438 7.96239 15.8408 8.36697 15.8408V14.3408ZM6.95325 16.2898C7.28368 16.0564 7.37352 15.9965 7.4641 15.9549L6.83804 14.5918C6.59229 14.7047 6.37384 14.8626 6.08771 15.0648L6.95325 16.2898ZM7.48126 14.3875C7.25927 14.4289 7.04324 14.4976 6.83803 14.5918L7.4641 15.9549C7.55738 15.9121 7.65558 15.8809 7.75647 15.862L7.48126 14.3875Z" fill="#807D7E"/>
</svg>
