<svg width="18" height="18" viewBox="0 0 18 18" fill="none" xmlns="http://www.w3.org/2000/svg">
<path d="M5.79503 15.1578C5.79503 16.1396 4.99909 16.9355 4.01725 16.9355C3.03541 16.9355 2.23947 16.1396 2.23947 15.1578C2.23947 14.1759 3.03541 13.38 4.01725 13.38C4.99909 13.38 5.79503 14.1759 5.79503 15.1578ZM5.79503 15.1578H12.9061C13.888 15.1578 14.6839 14.3618 14.6839 13.38V9.82444M12.9061 2.71332C12.9061 3.69516 13.7021 4.4911 14.6839 4.4911C15.6658 4.4911 16.4617 3.69516 16.4617 2.71332C16.4617 1.73149 15.6658 0.935547 14.6839 0.935547C13.7021 0.935547 12.9061 1.73149 12.9061 2.71332ZM12.9061 2.71332H5.79503C4.81319 2.71332 4.01725 3.50926 4.01725 4.4911V8.04666M17.3506 11.6022L14.9982 9.07538C14.8246 8.88894 14.5432 8.88894 14.3696 9.07538L12.0173 11.6022M6.68392 6.26888L4.33152 8.79572C4.15796 8.98216 3.87655 8.98216 3.70298 8.79572L1.35059 6.26888" stroke="#3C4242" stroke-width="1.1" stroke-linecap="round"/>
</svg>
