<svg width="18" height="18" viewBox="0 0 18 18" fill="none" xmlns="http://www.w3.org/2000/svg">
<path d="M12.9855 16.9355H5.71564C4.71188 16.9355 3.89817 16.1362 3.89817 15.1502V8.51519C3.89817 7.99897 3.26279 7.74044 2.8912 8.10547C2.55194 8.43872 1.97113 8.25588 1.89225 7.791L1.37539 4.74469C1.25264 4.02123 1.59281 3.29764 2.23305 2.92029L5.54711 0.967041C5.64363 0.910153 5.7681 0.932127 5.83842 1.01847C7.63899 3.22936 11.0622 3.22936 12.8628 1.01847C12.9331 0.932127 13.0575 0.910153 13.1541 0.967042L16.4681 2.92029C17.1084 3.29764 17.4485 4.02123 17.3258 4.74469L16.8089 7.791C16.73 8.25588 16.1492 8.43872 15.81 8.10547C15.4384 7.74044 14.803 7.99897 14.803 8.51519V15.1502C14.803 16.1362 13.9893 16.9355 12.9855 16.9355Z" stroke="#3C4242" stroke-width="1.1"/>
</svg>
